<?xml version="1.0" encoding="utf-8"?>
<!-- Generator: Adobe Illustrator 28.0.0, SVG Export Plug-In . SVG Version: 6.00 Build 0)  -->
<svg version="1.1" id="Layer_1_xA0_Image_00000111898873528676817580000005430473963040090761_"
	 xmlns="http://www.w3.org/2000/svg" xmlns:xlink="http://www.w3.org/1999/xlink" x="0px" y="0px" viewBox="0 0 612 144"
	 style="enable-background:new 0 0 612 144;" xml:space="preserve">
<style type="text/css">
	.st0{fill:#FFFFFF;}
	.st1{fill:url(#SVGID_1_);}
	.st2{fill:url(#SVGID_00000075141586609313132350000008976033348626698377_);}
</style>
<g>
	<path class="st0" d="M104.98,105.94V48.21h12.96v46.13h22.9v11.59H104.98z"/>
	<path class="st0" d="M143.53,85.31v-0.33c0-3.2,0.58-6.17,1.73-8.9c1.15-2.73,2.76-5.06,4.84-7c2.08-1.93,4.52-3.41,7.32-4.43
		c2.81-1.02,5.84-1.53,9.09-1.53c3.14,0,6.07,0.54,8.8,1.62c2.72,1.08,5.05,2.6,6.99,4.55c1.94,1.96,3.42,4.24,4.46,6.83
		c1.04,2.6,1.56,5.33,1.56,8.2l-0.17,3.98h-32.07c0.11,1.82,0.76,3.4,1.94,4.72s2.65,2.24,4.42,2.73c1.77,0.5,3.41,0.75,4.92,0.75
		c1.57,0,3.23-0.25,4.97-0.75c1.74-0.5,3.54-1.6,5.39-3.31l7.32,6.87c-5,5.08-11.08,7.62-18.27,7.62c-3.37,0-6.5-0.51-9.39-1.53
		c-2.89-1.02-5.36-2.48-7.41-4.39c-2.05-1.9-3.63-4.2-4.76-6.87C144.1,91.46,143.53,88.52,143.53,85.31z M156.25,80.26h19.45
		c0-0.88-0.31-1.86-0.93-2.94c-0.62-1.08-1.7-2.01-3.24-2.82c-1.54-0.8-3.21-1.2-5.01-1.2c-2.69,0-5.04,0.68-7.03,2.03
		C157.49,76.69,156.41,78.33,156.25,80.26z"/>
	<path class="st0" d="M197.33,105.94V75.38h-5.64V64.2h5.64V48.21h12.21V64.2h9.34v11.18h-9.34v30.56H197.33z"/>
	<path class="st0" d="M220.48,99.64l7.24-7.62c1.12,1.33,2.74,2.42,4.84,3.27c2.1,0.86,4.36,1.28,6.78,1.28
		c2.13,0,3.73-0.3,4.8-0.91c1.07-0.61,1.6-1.43,1.6-2.48c0-0.33-0.13-0.7-0.38-1.12s-0.81-0.8-1.68-1.16
		c-0.87-0.36-2.47-0.83-4.8-1.41c-2.33-0.58-4.14-1.09-5.43-1.53c-6.51-2.21-9.77-6.07-9.77-11.59c0-2.65,0.67-4.95,2.02-6.92
		c1.35-1.96,3.27-3.53,5.77-4.72c2.5-1.19,5.4-1.78,8.71-1.78c5.95,0,10.8,1.79,14.56,5.38l-5.98,8.12
		c-2.3-2.04-5.28-3.06-8.92-3.06c-1.35,0-2.39,0.26-3.11,0.79c-0.73,0.53-1.09,1.15-1.09,1.86c0,0.83,0.31,1.44,0.93,1.82
		c0.62,0.39,2.1,0.88,4.46,1.49c2.36,0.61,4.43,1.21,6.23,1.82c6.96,2.32,10.44,6.27,10.44,11.84c0,1.99-0.38,3.85-1.14,5.59
		s-1.89,3.24-3.41,4.51c-1.52,1.27-3.48,2.25-5.89,2.94c-2.41,0.69-5.16,1.04-8.25,1.04c-2.13,0-4.42-0.25-6.86-0.75
		c-2.44-0.5-4.67-1.35-6.69-2.57C223.42,102.57,221.77,101.19,220.48,99.64z"/>
	<path class="st0" d="M260.13,94.09l9.43-6.38c1.4,2.32,3.39,4.17,5.98,5.55c2.58,1.38,5.5,2.07,8.76,2.07
		c1.46,0,2.9-0.21,4.33-0.62c1.43-0.41,2.53-1.09,3.28-2.03c0.76-0.94,1.14-1.96,1.14-3.06c0-1.05-0.32-2.01-0.97-2.9
		c-0.65-0.88-1.67-1.67-3.07-2.36c-1.4-0.69-3.33-1.45-5.77-2.28c-2.44-0.83-4.08-1.41-4.92-1.74c-3.99-1.44-6.97-3.04-8.97-4.8
		c-1.99-1.77-3.37-3.64-4.12-5.63c-0.76-1.99-1.14-4.08-1.14-6.29c0-1.82,0.35-3.7,1.05-5.63c0.7-1.93,1.87-3.69,3.49-5.26
		c1.63-1.57,3.72-2.87,6.27-3.89c2.55-1.02,5.46-1.53,8.71-1.53c4.49,0,8.38,0.9,11.66,2.69c3.28,1.79,5.91,4.04,7.87,6.75
		l-8.67,6.46c-2.36-2.98-5.87-4.47-10.52-4.47c-2.13,0-3.84,0.44-5.14,1.33c-1.29,0.88-1.94,2.02-1.94,3.4
		c0,1.38,0.45,2.5,1.35,3.35c0.9,0.86,2.9,1.81,6.02,2.86c3.11,1.05,5.37,1.85,6.78,2.4c5.27,1.99,9.09,4.32,11.45,7
		c2.36,2.68,3.54,6.06,3.54,10.15c0,2.54-0.45,4.89-1.35,7.04c-0.9,2.15-2.25,4.03-4.04,5.63c-1.8,1.6-4.08,2.83-6.86,3.68
		c-2.78,0.86-5.96,1.28-9.55,1.28c-3.76,0-7.31-0.55-10.65-1.66c-3.34-1.1-6.12-2.66-8.33-4.68C263,98.5,261.31,96.36,260.13,94.09z
		"/>
	<path class="st0" d="M318.72,60.64c-1.91,0-3.58-0.69-5.01-2.07c-1.43-1.38-2.15-3.01-2.15-4.89c0-1.93,0.72-3.59,2.15-4.97
		c1.43-1.38,3.1-2.07,5.01-2.07c1.96,0,3.65,0.69,5.05,2.07c1.4,1.38,2.1,3.04,2.1,4.97c0,0.88-0.24,1.88-0.71,2.98
		c-0.48,1.1-1.32,2.04-2.53,2.82C321.42,60.25,320.12,60.64,318.72,60.64z M312.49,105.94V64.2h12.54v41.74H312.49z"/>
	<path class="st0" d="M331.6,85.07c0-2.93,0.53-5.71,1.6-8.37c1.07-2.65,2.55-4.97,4.46-6.96c1.91-1.99,4.15-3.53,6.73-4.64
		c2.58-1.1,5.33-1.66,8.25-1.66c1.52,0,3.17,0.19,4.97,0.58c1.8,0.39,3.41,1.09,4.84,2.11c1.43,1.02,2.37,2.19,2.82,3.52V64.2h12.54
		v34.78c0,5.47-0.6,9.73-1.81,12.79c-1.21,3.06-3.07,5.59-5.6,7.58c-1.91,1.49-4.22,2.66-6.95,3.52c-2.72,0.86-5.54,1.28-8.46,1.28
		c-8.25,0-15.18-1.96-20.79-5.88l5.98-8.94c4.26,2.65,8.61,3.98,13.05,3.98c1.63,0,3.24-0.19,4.84-0.58
		c1.6-0.39,2.88-0.91,3.83-1.57c2.47-1.66,3.7-4.69,3.7-9.11v-0.91c-0.9,1.49-2.53,2.71-4.88,3.64c-2.36,0.94-5.05,1.41-8.08,1.41
		c-2.92,0-5.67-0.54-8.25-1.61c-2.58-1.08-4.83-2.58-6.73-4.51c-1.91-1.93-3.4-4.2-4.46-6.79C332.13,90.67,331.6,87.94,331.6,85.07z
		 M344.14,85.07c0,2.1,0.6,4,1.81,5.71c1.21,1.71,2.65,2.9,4.34,3.56c1.68,0.66,3.23,0.99,4.63,0.99c1.4,0,2.97-0.33,4.71-0.99
		c1.74-0.66,3.24-1.85,4.5-3.56c1.26-1.71,1.89-3.62,1.89-5.71c0-2.1-0.63-4.02-1.89-5.76s-2.76-2.95-4.5-3.64
		c-1.74-0.69-3.31-1.04-4.71-1.04c-3.03,0-5.58,1.01-7.66,3.02C345.18,79.67,344.14,82.14,344.14,85.07z"/>
	<path class="st0" d="M385.98,105.94V64.2h12.54v5.22c0.9-1.82,2.47-3.3,4.71-4.43c2.24-1.13,4.8-1.7,7.66-1.7
		c5.16,0,9.16,1.53,12,4.6c2.83,3.06,4.25,7.3,4.25,12.71v25.34H414.6V82.08c0-1.77-0.38-3.28-1.14-4.56
		c-0.76-1.27-1.75-2.14-2.99-2.61c-1.24-0.47-2.44-0.7-3.62-0.7c-2.36,0-4.33,0.79-5.93,2.36s-2.4,3.55-2.4,5.92v23.44H385.98z"/>
</g>
<g>
	<linearGradient id="SVGID_1_" gradientUnits="userSpaceOnUse" x1="481.4805" y1="77.7407" x2="481.4805" y2="43.16">
		<stop  offset="0" style="stop-color:#9271FD"/>
		<stop  offset="1" style="stop-color:#25DFFE"/>
	</linearGradient>
	<path class="st1" d="M485.3,32.78c0,0-7.54,11.64-17.78,31.11c-7.56,14.37-11.19,15.7-11.19,15.7s17.56,0,22.44,0
		c1.33-0.89,4.74-5.93,5.85-7.7s22-39.11,22-39.11H485.3z"/>
	
		<linearGradient id="SVGID_00000124154092575909990400000004017911299571337608_" gradientUnits="userSpaceOnUse" x1="452.1991" y1="77.7407" x2="452.1991" y2="43.16">
		<stop  offset="0" style="stop-color:#9271FD"/>
		<stop  offset="1" style="stop-color:#25DFFE"/>
	</linearGradient>
	<path style="fill:url(#SVGID_00000124154092575909990400000004017911299571337608_);" d="M460.7,59.52l-20.96,0.15l4.81,10.22
		c2.98,4.77,3.7,5.95,7.99,8.81c1.5,1,2.06,0.9,2.06,0.9s3.15-1.04,10.06-13.73C462.39,62.82,460.7,59.52,460.7,59.52z"/>
</g>
</svg>
